<svg width="24" height="24" viewBox="0 0 24 24" fill="none" xmlns="http://www.w3.org/2000/svg">
<path d="M9.99995 14H13.7403V12.5001H9.99995V14ZM9.99995 11H17.4807V9.50006H9.99995V11ZM9.99995 8.00001H17.4807V6.50006H9.99995V8.00001ZM8.05765 17.75C7.55252 17.75 7.12496 17.575 6.77498 17.225C6.42498 16.875 6.24998 16.4474 6.24998 15.9423V4.55776C6.24998 4.05263 6.42498 3.62506 6.77498 3.27506C7.12496 2.92506 7.55252 2.75006 8.05765 2.75006H19.4422C19.9473 2.75006 20.3749 2.92506 20.7249 3.27506C21.0749 3.62506 21.2499 4.05263 21.2499 4.55776V15.9423C21.2499 16.4474 21.0749 16.875 20.7249 17.225C20.3749 17.575 19.9473 17.75 19.4422 17.75H8.05765ZM8.05765 16.25H19.4422C19.5191 16.25 19.5897 16.218 19.6538 16.1539C19.7179 16.0898 19.7499 16.0192 19.7499 15.9423V4.55776C19.7499 4.48083 19.7179 4.4103 19.6538 4.34619C19.5897 4.28209 19.5191 4.25004 19.4422 4.25004H8.05765C7.98072 4.25004 7.9102 4.28209 7.8461 4.34619C7.78198 4.4103 7.74993 4.48083 7.74993 4.55776V15.9423C7.74993 16.0192 7.78198 16.0898 7.8461 16.1539C7.9102 16.218 7.98072 16.25 8.05765 16.25ZM4.55768 21.25C4.05256 21.25 3.625 21.075 3.275 20.725C2.925 20.375 2.75 19.9474 2.75 19.4423V6.55776H4.24998V19.4423C4.24998 19.5192 4.28203 19.5897 4.34613 19.6538C4.41024 19.718 4.48076 19.75 4.55768 19.75H17.4422V21.25H4.55768Z" fill="black"/>
</svg>
