<svg width="24" height="24" viewBox="0 0 24 24" fill="none" xmlns="http://www.w3.org/2000/svg">
<path d="M4.3077 21.5C3.80257 21.5 3.375 21.325 3.025 20.975C2.675 20.625 2.5 20.1974 2.5 19.6923V9.30773C2.5 8.8026 2.675 8.37503 3.025 8.02503C3.375 7.67503 3.80257 7.50003 4.3077 7.50003H9.5V4.00001C9.5 3.58464 9.64615 3.2308 9.93845 2.93848C10.2308 2.64618 10.5846 2.50003 11 2.50003H13C13.4153 2.50003 13.7692 2.64618 14.0615 2.93848C14.3538 3.2308 14.5 3.58464 14.5 4.00001V7.50003H19.6923C20.1974 7.50003 20.625 7.67503 20.975 8.02503C21.325 8.37503 21.5 8.8026 21.5 9.30773V19.6923C21.5 20.1974 21.325 20.625 20.975 20.975C20.625 21.325 20.1974 21.5 19.6923 21.5H4.3077ZM4.3077 20H19.6923C19.782 20 19.8557 19.9712 19.9134 19.9135C19.9711 19.8558 20 19.782 20 19.6923V9.30773C20 9.21798 19.9711 9.14426 19.9134 9.08656C19.8557 9.02886 19.782 9.00001 19.6923 9.00001H14.5V9.38466C14.5 9.79362 14.3522 10.1459 14.0567 10.4414C13.7612 10.7369 13.4089 10.8846 13 10.8846H11C10.591 10.8846 10.2388 10.7369 9.94328 10.4414C9.64776 10.1459 9.5 9.79362 9.5 9.38466V9.00001H4.3077C4.21795 9.00001 4.14423 9.02886 4.08653 9.08656C4.02883 9.14426 3.99998 9.21798 3.99998 9.30773V19.6923C3.99998 19.782 4.02883 19.8558 4.08653 19.9135C4.14423 19.9712 4.21795 20 4.3077 20ZM6.15383 17.7115H11.8461V17.4154C11.8461 17.1577 11.775 16.9208 11.6327 16.7048C11.4904 16.4888 11.2936 16.3205 11.0423 16.2C10.7154 16.0564 10.3843 15.9487 10.049 15.8769C9.71375 15.8051 9.36408 15.7692 8.99998 15.7692C8.63588 15.7692 8.2862 15.8051 7.95095 15.8769C7.61568 15.9487 7.28459 16.0564 6.95768 16.2C6.70639 16.3205 6.5096 16.4888 6.3673 16.7048C6.22498 16.9208 6.15383 17.1577 6.15383 17.4154V17.7115ZM14 16.1923H18V15H14V16.1923ZM8.99998 15C9.37176 15 9.68907 14.8686 9.9519 14.6058C10.2147 14.343 10.3461 14.0257 10.3461 13.6539C10.3461 13.2821 10.2147 12.9648 9.9519 12.702C9.68907 12.4391 9.37176 12.3077 8.99998 12.3077C8.62819 12.3077 8.31088 12.4391 8.04805 12.702C7.78523 12.9648 7.65383 13.2821 7.65383 13.6539C7.65383 14.0257 7.78523 14.343 8.04805 14.6058C8.31088 14.8686 8.62819 15 8.99998 15ZM14 13.5H18V12.3077H14V13.5ZM11 9.38466H13V4.00001H11V9.38466Z" fill="#2F302E"/>
</svg>
