<svg width="24" height="24" viewBox="0 0 24 24" fill="none" xmlns="http://www.w3.org/2000/svg">
<path d="M4.3077 20.75C3.80257 20.75 3.375 20.575 3.025 20.225C2.675 19.875 2.5 19.4474 2.5 18.9423V8.55771C2.5 8.05258 2.675 7.62501 3.025 7.27501C3.375 6.92501 3.80257 6.75001 4.3077 6.75001H8.5V5.05774C8.5 4.55262 8.675 4.12506 9.025 3.77506C9.375 3.42506 9.80257 3.25006 10.3077 3.25006H13.6923C14.1974 3.25006 14.625 3.42506 14.975 3.77506C15.325 4.12506 15.5 4.55262 15.5 5.05774V6.75001H19.6923C20.1974 6.75001 20.625 6.92501 20.975 7.27501C21.325 7.62501 21.5 8.05258 21.5 8.55771V18.9423C21.5 19.4474 21.325 19.875 20.975 20.225C20.625 20.575 20.1974 20.75 19.6923 20.75H4.3077ZM4.3077 19.25H19.6923C19.7692 19.25 19.8397 19.2179 19.9038 19.1538C19.9679 19.0897 20 19.0192 20 18.9423V8.55771C20 8.48078 19.9679 8.41025 19.9038 8.34614C19.8397 8.28204 19.7692 8.24999 19.6923 8.24999H4.3077C4.23077 8.24999 4.16024 8.28204 4.09613 8.34614C4.03202 8.41025 3.99998 8.48078 3.99998 8.55771V18.9423C3.99998 19.0192 4.03202 19.0897 4.09613 19.1538C4.16024 19.2179 4.23077 19.25 4.3077 19.25ZM9.99998 6.75001H14V5.05774C14 4.9808 13.9679 4.91029 13.9038 4.84619C13.8397 4.78207 13.7692 4.75001 13.6923 4.75001H10.3077C10.2308 4.75001 10.1602 4.78207 10.0961 4.84619C10.032 4.91029 9.99998 4.9808 9.99998 5.05774V6.75001Z" fill="#2F302E"/>
</svg>
