<svg width="80" height="80" viewBox="0 0 80 80" fill="none" xmlns="http://www.w3.org/2000/svg">
<rect x="1" y="1" width="78" height="78" rx="3" fill="#2F302E"/>
<rect x="1" y="1" width="78" height="78" rx="3" stroke="#53772F" stroke-width="2"/>
<path fill-rule="evenodd" clip-rule="evenodd" d="M32.1619 35.5429C31.2452 30.7455 28.5827 27.4678 24.6395 26.3249C23.6221 26.0361 20.9094 25.8979 19.8671 26.0863C17.9206 26.438 16.2754 27.2417 14.9191 28.5101C12.332 30.9339 11.164 33.9353 11.0134 38.6448C10.8502 43.8817 12.1813 47.8125 15.007 50.3744C16.3508 51.5801 17.9456 52.2457 20.4574 52.6476C21.6504 52.8485 21.7384 52.8735 22.3789 53.4387C24.1371 54.9834 24.677 55.4231 25.7068 56.1012C27.7287 57.4448 30.1024 58.0729 32.702 57.9472C33.2125 57.9229 33.7855 57.8672 34.2191 57.8039C34.4575 57.769 34.6538 57.7318 34.7741 57.6961L35.402 57.5328L35.4397 56.0509C35.4647 54.6696 35.4522 54.5689 35.2513 54.6569C33.9327 55.1718 31.0443 55.2095 29.3362 54.7198C28.1682 54.3933 26.7116 53.6648 25.6943 52.8987L24.9031 52.2959L26.3097 51.6178C27.5529 51.015 27.8419 50.8014 28.8715 49.7843C30.6298 48.026 31.4838 46.3809 32.0991 43.5175C32.4634 41.7845 32.5009 37.3513 32.1619 35.5429ZM20.6458 28.5601C18.7998 28.8866 17.4434 29.8034 16.3634 31.4611C14.8313 33.797 14.1028 37.5771 14.4796 41.2442C14.9443 45.7903 16.7778 48.8672 19.6035 49.8342C20.809 50.2486 22.6175 50.2486 23.823 49.8342C26.6864 48.8546 28.6456 45.4262 28.9092 40.9051C29.2485 35.191 27.779 31.009 24.8153 29.2633C23.7855 28.648 21.9142 28.3341 20.6458 28.5601Z" fill="white"/>
<path fill-rule="evenodd" clip-rule="evenodd" d="M61.0129 29.9411C59.0412 28.0824 56.4039 26.7889 54.068 26.5503C51.9708 26.3243 50.7526 26.3996 49.1325 26.8517C46.9474 27.4419 45.3274 28.3587 43.6947 29.9286C40.9318 32.5784 39.5002 36.4338 39.9147 40.1261C40.0401 41.2563 40.0276 41.3694 39.8267 41.52C38.7467 42.2861 37.3276 43.8936 36.9131 44.8229C36.3857 45.9783 36.662 46.9956 37.6666 47.6612C38.1563 47.9877 38.3197 48.0128 39.5881 48.0504C40.6179 48.0881 41.2835 48.0379 42.15 47.8495L43.3305 47.6109L44.0338 48.2263C45.4403 49.457 47.2237 50.424 49.1452 50.9891C50.0368 51.2403 50.3884 51.278 52.3476 51.2654C54.3568 51.2654 54.6458 51.2277 55.6755 50.9138C57.9862 50.2231 60.2844 48.7788 61.666 47.1714C63.7757 44.7099 64.7805 41.9721 64.7805 38.6819V37.1371L65.8605 36.1073C66.4507 35.5548 67.1792 34.751 67.4555 34.324C67.9075 33.671 67.9829 33.47 68.0206 32.7542C68.0834 31.4356 67.5307 30.8076 66.0237 30.4937C65.1823 30.3178 62.8088 30.3932 62.2059 30.6192C61.8919 30.7448 61.8042 30.6946 61.0129 29.9411ZM44.1844 32.2767C45.5283 30.6316 47.6506 29.2752 49.7103 28.7352C50.8531 28.4464 51.1042 28.4338 51.6316 28.6599C52.4982 29.024 52.9 29.7148 53.214 31.4102C53.3647 32.2767 53.955 33.1558 54.7463 33.7083C55.2108 34.0349 55.3866 34.0726 56.1653 34.0726C57.1449 34.06 57.9487 33.7461 58.9533 32.9925C59.2421 32.7791 59.7068 32.553 59.9956 32.5027C60.4728 32.4148 60.5357 32.4399 60.8496 32.8042C61.3143 33.3442 62.2814 35.3912 62.3566 35.9815L62.4195 36.4838L60.8119 37.5512C57.8985 39.4853 54.0303 41.5323 50.0368 43.2403C47.8767 44.157 44.6743 45.3124 44.2724 45.3124C43.7827 45.3124 42.6147 43.19 42.15 41.4444C41.7857 40.0881 41.7984 37.7271 42.1625 36.3331C42.5017 35.0145 43.3807 33.2689 44.1844 32.2767ZM50.3381 37.1243C50.8531 36.2703 50.4888 35.3033 49.459 34.801C48.3916 34.2735 47.4498 34.3237 46.357 34.9517C45.5283 35.4415 43.7827 37.2248 43.4309 37.9657C42.8031 39.2717 43.2803 40.7788 44.398 40.9923C44.8877 41.0802 45.93 40.7536 47.2237 40.0756C48.0901 39.6234 49.7982 38.0034 50.3381 37.1243ZM46.7967 36.3707C45.9175 36.873 44.5989 38.8448 44.7748 39.3722C44.8752 39.6611 45.2393 39.548 46.1938 38.9578C47.123 38.3927 48.3539 37.3126 48.8561 36.5968C49.1952 36.1447 49.032 36.0191 48.0776 36.0191C47.9707 36.0217 47.8719 36.027 47.7785 36.0362C47.7549 36.0385 47.7318 36.0411 47.709 36.0438C47.646 36.0516 47.5853 36.0613 47.5261 36.0734L47.4961 36.0797L47.4619 36.0874L47.4393 36.093C47.417 36.0986 47.3949 36.1045 47.373 36.1107C47.3186 36.1263 47.2647 36.1442 47.2104 36.1649C47.0776 36.2157 46.9435 36.2827 46.7967 36.3707ZM55.1857 29.991C55.1403 29.7868 55.0925 29.58 55.0489 29.4032C54.9961 29.1884 54.9497 29.0176 54.9221 28.9487C54.809 28.6599 54.9471 28.6724 55.9519 29.0491C56.8434 29.3883 58.3505 30.2296 58.6017 30.531C58.7147 30.6692 58.5515 30.8073 57.7101 31.2343C56.0022 32.1134 55.6254 31.925 55.1857 29.991ZM63.8638 32.5028C63.6125 32.5531 63.3614 32.6284 63.3112 32.666C63.2484 32.7414 63.939 34.4242 64.1149 34.6377C64.2154 34.7508 65.6596 32.7791 65.6596 32.5153C65.6596 32.3647 64.6173 32.3521 63.8638 32.5028ZM46.9475 46.5055C51.4811 45.0487 58.0868 41.7961 61.8294 39.1965C62.2437 38.9076 62.6204 38.669 62.6833 38.669C62.8842 38.6439 62.7586 40.3142 62.4697 41.4444C61.7287 44.3705 59.7572 46.8572 57.1324 48.1883C56.4794 48.5274 56.2283 48.4772 55.4495 47.887C54.018 46.7943 53.616 46.8069 51.2675 48.025L49.434 48.9795L48.5173 48.6405C47.5127 48.2762 45.6037 47.0958 45.7796 46.9451C45.7983 46.9262 45.8841 46.8863 46.0149 46.8338C46.148 46.7803 46.328 46.714 46.5316 46.6437C46.5857 46.625 46.6414 46.606 46.6983 46.587C46.7792 46.5599 46.8627 46.5325 46.9475 46.5055ZM39.7638 44.2826C39.3871 44.6845 38.9726 45.1868 38.8596 45.4004C38.6713 45.7771 38.6713 45.8147 38.8847 45.9278C39.0857 46.0408 41.6351 45.8901 41.7605 45.7645C41.8485 45.6766 40.7307 43.5668 40.5927 43.5542C40.5173 43.5542 40.1406 43.8807 39.7638 44.2826ZM51.6568 49.1302C51.7949 49.0172 52.2471 48.766 52.6614 48.5651C53.0759 48.3642 53.5281 48.2009 53.6662 48.2009C53.9298 48.2009 54.9849 48.8163 54.9849 48.967C54.9849 49.1177 53.5406 49.3312 52.4857 49.3312C51.4809 49.3186 51.4182 49.3061 51.6568 49.1302Z" fill="white"/>
<path fill-rule="evenodd" clip-rule="evenodd" d="M59.2231 22.2915C59.1814 22.1199 59.1471 22.0464 59.098 22.0219C59.0724 22.0074 59.0584 21.9995 59.0447 22C59.0284 22.0007 59.0126 22.0135 58.9779 22.0415C58.9363 22.0758 58.9216 22.1175 58.9118 22.2425C58.8946 22.4655 58.8676 22.5244 58.7108 22.6518C58.5686 22.7695 58.3112 22.9043 58.2353 22.9043C58.0441 22.9043 57.8774 23.0171 57.9117 23.1224C57.9313 23.1837 57.9754 23.2009 58.1887 23.2229C58.3774 23.2426 58.4583 23.2818 58.5416 23.397C58.5931 23.4681 58.7083 23.8946 58.7083 24.0147C58.7083 24.1103 58.7966 24.2034 58.8848 24.2034C58.9559 24.2034 59.0441 24.1005 59.076 23.9804C59.1152 23.8382 59.228 23.6813 59.353 23.5955C59.4952 23.495 59.7795 23.3553 59.9045 23.3234C60.1766 23.2499 60.0981 22.9484 59.8187 22.9925C59.7329 23.0048 59.7158 22.9974 59.576 22.87C59.4167 22.7278 59.2745 22.4925 59.2231 22.2915ZM62.8753 23.8823C62.8582 23.7965 62.8263 23.723 62.7944 23.6911C62.7282 23.6298 62.6155 23.6078 62.537 23.6396C62.4463 23.6789 62.4145 23.7892 62.4292 24.0416C62.439 24.25 62.4365 24.277 62.3728 24.3995C62.3336 24.4755 62.2257 24.6103 62.113 24.7206C61.8581 24.9731 61.5884 25.1103 61.1766 25.1961C61.0198 25.2304 60.8506 25.2574 60.8016 25.2574C60.5663 25.2574 60.4413 25.4731 60.5908 25.6226C60.6472 25.6815 60.6864 25.6937 60.8408 25.7084C61.26 25.7501 61.7282 25.9045 61.961 26.0761C62.2674 26.2992 62.4316 26.5516 62.6424 27.1154C62.6939 27.2551 62.765 27.3948 62.7969 27.4291C62.8778 27.5076 62.9979 27.5076 63.0886 27.4291C63.1547 27.3728 63.1572 27.3654 63.1719 27.0075C63.1915 26.6055 63.2307 26.4242 63.341 26.2158C63.4439 26.0246 63.7332 25.6717 63.8999 25.5368C64.0396 25.4216 64.4906 25.1839 64.5666 25.1839C64.5798 25.1839 64.5994 25.1774 64.6201 25.1673C64.6378 25.1587 64.6562 25.1473 64.672 25.1348C64.8117 25.0245 64.7651 24.8383 64.5837 24.7917C64.5274 24.7745 64.4269 24.7476 64.3583 24.728C64.2921 24.7084 64.1352 24.6838 64.0151 24.6716C63.6351 24.6324 63.4268 24.5294 63.1057 24.2157C62.9194 24.0343 62.9022 24.0098 62.8753 23.8823ZM37.0155 31.5299C37.0155 31.4539 37.0008 31.4049 36.9714 31.378C36.9101 31.3216 36.8121 31.3265 36.7557 31.3878C36.7189 31.4294 36.7067 31.4907 36.6969 31.7015C36.6822 32.0251 36.6356 32.1305 36.4003 32.3682C36.2728 32.4982 36.187 32.5594 36.0473 32.6232L35.6821 32.7923C35.5816 32.8389 35.4885 32.9001 35.4713 32.9295C35.4272 33.0104 35.4517 33.106 35.5228 33.1477C35.5792 33.1796 35.6086 33.1796 35.7237 33.1526C35.888 33.1109 35.9762 33.1256 36.1944 33.2335C36.4689 33.3634 36.6307 33.5129 36.7287 33.7213C36.8292 33.9321 36.8415 33.9811 36.8685 34.2532C36.8881 34.4321 36.9003 34.4689 36.9542 34.5154C37.0253 34.5792 37.0597 34.5841 37.1479 34.5449C37.2165 34.513 37.2509 34.4395 37.2729 34.2654C37.2974 34.0767 37.3783 33.7752 37.4445 33.6257C37.6062 33.2629 37.8489 33.0693 38.3955 32.8707C38.5818 32.8021 38.6308 32.6918 38.5279 32.5717C38.4764 32.5129 38.4495 32.5055 38.2999 32.4982C38.0818 32.4908 37.7067 32.3707 37.5131 32.2457C37.4322 32.1942 37.2974 32.0864 37.2141 32.0079C37.0498 31.8535 37.018 31.78 37.0155 31.5299ZM58.8881 22.8575C58.9126 22.8357 58.9348 22.8144 58.951 22.7964C58.9832 22.7624 59.0155 22.7332 59.0347 22.7184C59.0387 22.7154 59.0421 22.7129 59.0448 22.7112C59.048 22.7092 59.0515 22.7081 59.0515 22.7081C59.0613 22.7081 59.1029 22.7572 59.147 22.8184C59.1912 22.8797 59.2794 22.9753 59.3456 23.0317L59.4633 23.1322L59.3407 23.1959C59.2745 23.2302 59.1544 23.3111 59.0735 23.3749C58.9951 23.4386 58.924 23.4925 58.9216 23.4925C58.9166 23.4925 58.8995 23.446 58.8823 23.392C58.8652 23.3356 58.8015 23.2376 58.7402 23.1714C58.6789 23.1052 58.6323 23.0464 58.6372 23.0415C58.6372 23.0415 58.6464 23.0354 58.6581 23.0273C58.6803 23.0119 58.7172 22.9863 58.7573 22.9606C58.7961 22.9342 58.8457 22.8951 58.8881 22.8575ZM62.6547 24.7696C62.5027 24.9926 62.2208 25.2475 61.9708 25.3873L61.8139 25.4731L61.9953 25.5637C62.2968 25.7182 62.5395 25.9265 62.7258 26.1961L62.8067 26.3163L62.8876 26.13C63.0126 25.8432 63.3508 25.4044 63.6033 25.201L63.7602 25.076L63.5812 25.0319C63.3876 24.9828 63.1572 24.8578 62.9464 24.6838C62.8704 24.6225 62.8042 24.571 62.7993 24.571C62.7944 24.5735 62.7282 24.6617 62.6547 24.7696ZM36.3733 32.8266C36.5057 32.7457 36.7238 32.53 36.8243 32.3755C36.8807 32.2898 36.9322 32.2187 36.9395 32.2187C36.9444 32.2187 37.0228 32.28 37.1135 32.3535C37.2998 32.503 37.5082 32.6158 37.6847 32.6623C37.711 32.6694 37.7353 32.6774 37.7546 32.6847C37.7822 32.6952 37.7999 32.7046 37.7999 32.7089C37.7974 32.7163 37.7362 32.7604 37.6601 32.8069C37.4763 32.9246 37.2631 33.1575 37.1626 33.3536C37.116 33.4443 37.0719 33.5178 37.0645 33.5178C37.0572 33.5178 37.0155 33.4614 36.9738 33.3952C36.8782 33.2506 36.6674 33.079 36.4591 32.9736C36.3733 32.932 36.3047 32.8903 36.3047 32.8829C36.3047 32.8731 36.3341 32.8486 36.3733 32.8266Z" fill="white"/>
<path d="M63.894 25.1157L62.8361 24.5431L61.6806 25.485L62.8864 26.5211L63.894 25.1157Z" fill="white"/>
<path d="M59.5143 23.1303L59.0703 22.5651L58.4311 23.1034L59.0982 23.6954L59.5143 23.1303Z" fill="white"/>
<path d="M37.8979 32.6433L36.909 32.1253L36.2026 32.899L37.0502 33.6794L37.8979 32.6433Z" fill="white"/>
</svg>
