<svg xmlns="http://www.w3.org/2000/svg" width="134" height="40" viewBox="0 0 134 40" fill="none">
  <path fill-rule="evenodd" clip-rule="evenodd" d="M112.5 8.63443C110.528 6.77576 107.891 5.48223 105.555 5.24363C103.458 5.01764 102.24 5.09297 100.619 5.54506C98.4344 6.1353 96.8144 7.05208 95.1817 8.62192C92.4188 11.2717 90.9872 15.1272 91.4017 18.8194C91.5271 19.9497 91.5146 20.0627 91.3137 20.2134C90.2337 20.9795 88.8146 22.587 88.4001 23.5163C87.8727 24.6716 88.149 25.6889 89.1536 26.3545C89.6433 26.6811 89.8067 26.7062 91.0751 26.7438C92.1049 26.7815 92.7705 26.7313 93.637 26.5429L94.8175 26.3043L95.5208 26.9197C96.9273 28.1504 98.7107 29.1174 100.632 29.6825C101.524 29.9337 101.875 29.9713 103.835 29.9588C105.844 29.9588 106.133 29.9211 107.162 29.6072C109.473 28.9165 111.771 27.4722 113.153 25.8647C115.263 23.4033 116.267 20.6655 116.267 17.3752V15.8305L117.348 14.8007C117.938 14.2481 118.666 13.4444 118.942 13.0173C119.394 12.3644 119.47 12.1634 119.508 11.4476C119.57 10.1289 119.018 9.50098 117.511 9.18705C116.669 9.01118 114.296 9.08661 113.693 9.31261C113.379 9.43816 113.291 9.38794 112.5 8.63443ZM77.9012 23.7423L77.8635 15.3909L77.8385 7.05208H74.6988V33.2994H77.8385L77.8635 28.5773L77.9012 23.8554L81.9074 28.5773L85.901 33.2994H87.7723C88.8021 33.2994 89.6433 33.2742 89.6433 33.2366C89.6433 33.2114 87.835 31.0262 85.6247 28.4016C83.4144 25.7643 81.606 23.5917 81.606 23.554C81.606 23.5289 83.2637 21.733 85.2857 19.5729C87.2951 17.4128 89.0657 15.5166 89.1914 15.3658L89.43 15.0895H85.9387L81.9199 19.4097L77.9012 23.7423ZM21.1619 16.8854C20.2452 12.088 17.5827 8.8103 13.6395 7.66743C12.6221 7.37861 9.90944 7.24045 8.86711 7.42883C6.9206 7.78048 5.27542 8.58421 3.91907 9.85263C1.33201 12.2764 0.164029 15.2779 0.0133635 19.9873C-0.149811 25.2243 1.18134 29.1551 4.007 31.7169C5.35085 32.9226 6.94562 33.5882 9.45744 33.9902C10.6504 34.191 10.7384 34.2161 11.3789 34.7812C13.1371 36.3259 13.677 36.7656 14.7068 37.4437C16.7287 38.7873 19.1024 39.4154 21.702 39.2897C22.2125 39.2655 22.7855 39.2097 23.2191 39.1464C23.4575 39.1115 23.6538 39.0743 23.7741 39.0386L24.402 38.8753L24.4397 37.3935C24.4647 36.0121 24.4522 35.9115 24.2513 35.9994C22.9327 36.5143 20.0443 36.552 18.3362 36.0623C17.1682 35.7358 15.7116 35.0073 14.6943 34.2413L13.9031 33.6384L15.3097 32.9603C16.5529 32.3575 16.8419 32.1439 17.8715 31.1268C19.6298 29.3686 20.4838 27.7234 21.0991 24.86C21.4634 23.127 21.5009 18.6939 21.1619 16.8854ZM49.833 11.0708V8.05679H46.8189V11.0708H49.833ZM69.9643 19.1962C69.8637 17.4003 67.9424 15.5291 65.531 14.9011C64.7525 14.7002 62.5045 14.5496 61.8891 14.6625C59.7793 15.0268 58.4356 15.6421 57.3053 16.7724C55.208 18.8822 54.3038 22.5241 54.9192 26.5178C55.5972 31.0262 58.2722 33.5505 62.5799 33.7641C65.0915 33.8895 66.9628 33.3119 68.4196 31.9682C69.2358 31.2021 69.8637 30.1095 70.0019 29.1802L70.0898 28.6527H66.9503L66.8749 29.1551C66.699 30.5364 64.9659 31.4406 62.8687 31.2397C61.6003 31.1268 60.7464 30.75 59.8672 29.9337C58.4733 28.6402 57.9709 27.1331 57.9709 24.1944C57.9709 21.3437 58.4733 19.7487 59.7793 18.5306C60.9222 17.4631 62.3413 17.0487 64.1497 17.2371C65.7446 17.4128 66.699 18.1035 66.8874 19.2464L66.9878 19.7989H69.9894L69.9643 19.1962ZM133.209 17.4506C132.631 16.3077 131.375 15.3156 129.994 14.9011C129.19 14.6625 127.809 14.5747 126.879 14.7127C125.347 14.9514 123.614 16.1193 122.384 17.7268L122.057 18.1663L122.044 16.6217V15.0895H119.03V33.2994H122.044V28.4769C122.044 23.4911 122.132 22.2102 122.559 20.992C123.074 19.5101 124.43 18.1287 125.799 17.664C127.557 17.0863 129.63 17.7394 130.32 19.0957C130.785 19.9873 130.835 20.8665 130.835 27.1709V33.2994H134L133.937 26.4173C133.887 19.0706 133.849 18.719 133.209 17.4506ZM31.1961 30.7374C29.2873 29.9211 29.1114 29.042 29.1114 20.452V15.0895H26.0974V21.3939C26.0974 28.163 26.1728 29.2555 26.7253 30.7248C27.4035 32.5082 29.6011 33.7766 32.025 33.8018C34.0595 33.8143 35.9935 32.797 37.3121 31.0388L37.9024 30.2602V33.2994H41.042L41.0169 24.2195L40.9792 15.1523H37.9652L37.8898 20.7408C37.8395 24.4833 37.7643 26.5052 37.6638 26.8819C37.2117 28.5271 36.1066 29.896 34.6748 30.5742C33.9088 30.9258 33.7079 30.976 32.7533 30.9635C32.05 30.9635 31.5226 30.8881 31.1961 30.7374ZM49.833 33.2994V15.0895H46.8189V33.2994H49.833ZM95.6714 10.97C97.0153 9.32493 99.1376 7.96858 101.197 7.42856C102.34 7.13973 102.591 7.12713 103.119 7.35322C103.985 7.71738 104.387 8.40816 104.701 10.1036C104.852 10.97 105.442 11.8492 106.233 12.4017C106.698 12.7282 106.874 12.7659 107.652 12.7659C108.632 12.7533 109.436 12.4394 110.44 11.6859C110.729 11.4724 111.194 11.2463 111.483 11.1961C111.96 11.1082 112.023 11.1333 112.337 11.4975C112.801 12.0375 113.768 14.0846 113.844 14.6748L113.907 15.1771L112.299 16.2446C109.385 18.1787 105.517 20.2256 101.524 21.9336C99.3637 22.8504 96.1613 24.0058 95.7594 24.0058C95.2697 24.0058 94.1017 21.8834 93.637 20.1378C93.2728 18.7814 93.2854 16.4205 93.6495 15.0265C93.9887 13.7078 94.8677 11.9622 95.6714 10.97ZM101.825 15.8176C102.34 14.9637 101.976 13.9967 100.946 13.4943C99.8786 12.9668 98.9368 13.0171 97.844 13.645C97.0153 14.1348 95.2697 15.9181 94.9179 16.6591C94.2901 17.9651 94.7673 19.4721 95.885 19.6857C96.3747 19.7735 97.417 19.447 98.7107 18.7689C99.5771 18.3167 101.285 16.6968 101.825 15.8176ZM98.2837 15.0641C97.4045 15.5664 96.0859 17.5381 96.2618 18.0655C96.3622 18.3545 96.7263 18.2414 97.6808 17.6512C98.61 17.086 99.8409 16.006 100.343 15.2902C100.682 14.838 100.519 14.7125 99.5646 14.7125C99.4577 14.715 99.3589 14.7204 99.2655 14.7296C99.242 14.7319 99.2188 14.7344 99.196 14.7372C99.133 14.7449 99.0723 14.7547 99.0131 14.7667L98.9831 14.7731L98.9489 14.7808L98.9263 14.7864C98.904 14.7919 98.8819 14.7978 98.86 14.8041C98.8056 14.8196 98.7517 14.8376 98.6974 14.8582C98.5646 14.909 98.4305 14.9761 98.2837 15.0641ZM106.673 8.68437C106.627 8.48018 106.579 8.2734 106.536 8.09652C106.483 7.88175 106.437 7.71094 106.409 7.64204C106.296 7.35322 106.434 7.36573 107.439 7.74249C108.33 8.08162 109.837 8.92297 110.089 9.2244C110.202 9.36255 110.039 9.50071 109.197 9.92768C107.489 10.8067 107.112 10.6184 106.673 8.68437ZM115.351 11.1962C115.1 11.2464 114.848 11.3218 114.798 11.3594C114.735 11.4348 115.426 13.1176 115.602 13.3311C115.702 13.4441 117.147 11.4724 117.147 11.2087C117.147 11.058 116.104 11.0454 115.351 11.1962ZM98.4345 25.1989C102.968 23.7421 109.574 20.4894 113.316 17.8899C113.731 17.6009 114.107 17.3623 114.17 17.3623C114.371 17.3372 114.246 19.0075 113.957 20.1378C113.216 23.0639 111.244 25.5505 108.619 26.8817C107.966 27.2208 107.715 27.1706 106.937 26.5803C105.505 25.4877 105.103 25.5003 102.755 26.7184L100.921 27.6729L100.004 27.3338C98.9997 26.9696 97.0907 25.7891 97.2666 25.6384C97.2853 25.6196 97.3711 25.5797 97.5019 25.5271C97.635 25.4737 97.815 25.4074 98.0186 25.337C98.0727 25.3183 98.1284 25.2994 98.1853 25.2804C98.2662 25.2532 98.3497 25.2259 98.4345 25.1989ZM91.2508 22.976C90.8741 23.3778 90.4596 23.8801 90.3466 24.0937C90.1583 24.4705 90.1583 24.5081 90.3717 24.6211C90.5727 24.7342 93.1221 24.5834 93.2475 24.4579C93.3355 24.3699 92.2177 22.2602 92.0798 22.2476C92.0043 22.2476 91.6276 22.5741 91.2508 22.976ZM103.144 27.8235C103.282 27.7106 103.734 27.4594 104.148 27.2584C104.563 27.0575 105.015 26.8943 105.153 26.8943C105.417 26.8943 106.472 27.5096 106.472 27.6604C106.472 27.811 105.028 28.0245 103.973 28.0245C102.968 28.0119 102.905 27.9994 103.144 27.8235ZM9.64582 9.90257C7.79976 10.2291 6.4434 11.1459 5.36336 12.8037C3.83132 15.1395 3.10283 18.9196 3.47958 22.5867C3.94427 27.1329 5.77783 30.2097 8.60349 31.1767C9.80899 31.5911 11.6175 31.5911 12.823 31.1767C15.6864 30.1971 17.6456 26.7687 17.9092 22.2476C18.2485 16.5335 16.779 12.3515 13.8153 10.6059C12.7855 9.99051 10.9142 9.67658 9.64582 9.90257Z" fill="white"/>
  <path fill-rule="evenodd" clip-rule="evenodd" d="M110.71 0.984869C110.668 0.813276 110.634 0.739741 110.585 0.715236C110.559 0.70073 110.545 0.69283 110.532 0.693387C110.515 0.694051 110.5 0.706816 110.465 0.73484C110.423 0.769166 110.409 0.810834 110.399 0.93584C110.382 1.1589 110.355 1.21772 110.198 1.34518C110.056 1.46285 109.798 1.59765 109.722 1.59765C109.531 1.59765 109.364 1.71042 109.399 1.8158C109.418 1.87709 109.462 1.89425 109.676 1.9163C109.864 1.93592 109.945 1.97513 110.029 2.09033C110.08 2.16143 110.195 2.58792 110.195 2.70804C110.195 2.80362 110.284 2.89678 110.372 2.89678C110.443 2.89678 110.531 2.79382 110.563 2.67371C110.602 2.53154 110.715 2.37467 110.84 2.28887C110.982 2.18839 111.266 2.04867 111.391 2.0168C111.664 1.94326 111.585 1.64178 111.306 1.68589C111.22 1.69815 111.203 1.69079 111.063 1.56335C110.904 1.42118 110.762 1.18585 110.71 0.984869ZM114.362 2.57567C114.345 2.48987 114.313 2.41634 114.281 2.38447C114.215 2.3232 114.102 2.30114 114.024 2.333C113.933 2.37223 113.901 2.48253 113.916 2.73499C113.926 2.94335 113.924 2.97031 113.86 3.09286C113.821 3.16885 113.713 3.30366 113.6 3.41396C113.345 3.66643 113.075 3.8037 112.664 3.8895C112.507 3.92381 112.338 3.95077 112.289 3.95077C112.053 3.95077 111.928 4.16647 112.078 4.31598C112.134 4.37482 112.173 4.38708 112.328 4.40178C112.747 4.44345 113.215 4.59788 113.448 4.76946C113.754 4.99252 113.919 5.24499 114.129 5.80875C114.181 5.94847 114.252 6.08818 114.284 6.12251C114.365 6.20094 114.485 6.20094 114.576 6.12251C114.642 6.06612 114.644 6.05878 114.659 5.7009C114.679 5.2989 114.718 5.11753 114.828 4.90918C114.931 4.71799 115.22 4.36501 115.387 4.23021C115.527 4.115 115.978 3.87724 116.054 3.87724C116.067 3.87724 116.086 3.87081 116.107 3.86066C116.125 3.85201 116.143 3.84063 116.159 3.82821C116.299 3.7179 116.252 3.53163 116.071 3.48506C116.014 3.46789 115.914 3.44093 115.845 3.42132C115.779 3.40172 115.622 3.37719 115.502 3.36495C115.122 3.32572 114.914 3.22278 114.593 2.90902C114.406 2.72764 114.389 2.70314 114.362 2.57567ZM88.5025 10.2233C88.5025 10.1473 88.4878 10.0983 88.4584 10.0713C88.3971 10.015 88.2991 10.0199 88.2427 10.0811C88.2059 10.1228 88.1937 10.1841 88.1839 10.3949C88.1692 10.7184 88.1226 10.8238 87.8873 11.0616C87.7598 11.1915 87.674 11.2528 87.5343 11.3165L87.1691 11.4857C87.0686 11.5322 86.9755 11.5935 86.9583 11.6229C86.9142 11.7038 86.9387 11.7994 87.0098 11.8411C87.0662 11.8729 87.0956 11.8729 87.2107 11.846C87.375 11.8043 87.4632 11.819 87.6814 11.9269C87.9559 12.0568 88.1177 12.2063 88.2157 12.4146C88.3162 12.6254 88.3285 12.6745 88.3555 12.9465C88.3751 13.1255 88.3873 13.1622 88.4412 13.2088C88.5123 13.2725 88.5467 13.2774 88.6349 13.2382C88.7035 13.2064 88.7379 13.1328 88.7599 12.9588C88.7844 12.7701 88.8653 12.4686 88.9315 12.319C89.0932 11.9563 89.3359 11.7626 89.8825 11.5641C90.0688 11.4955 90.1179 11.3852 90.0149 11.265C89.9634 11.2062 89.9365 11.1989 89.7869 11.1915C89.5688 11.1842 89.1937 11.064 89.0001 10.939C88.9192 10.8876 88.7844 10.7797 88.7011 10.7013C88.5368 10.5468 88.505 10.4733 88.5025 10.2233ZM110.375 1.55083C110.4 1.52904 110.422 1.50775 110.438 1.48976C110.47 1.45581 110.502 1.42655 110.522 1.41177C110.526 1.40872 110.529 1.40629 110.532 1.40455C110.535 1.40256 110.538 1.4015 110.538 1.4015C110.548 1.4015 110.59 1.45053 110.634 1.5118C110.678 1.57309 110.766 1.66868 110.833 1.72507L110.95 1.82557L110.828 1.88928C110.762 1.92361 110.641 2.0045 110.561 2.06822C110.482 2.13195 110.411 2.18588 110.409 2.18588C110.404 2.18588 110.386 2.13931 110.369 2.08538C110.352 2.02901 110.288 1.93097 110.227 1.86477C110.166 1.7986 110.119 1.73977 110.124 1.73487C110.124 1.73487 110.133 1.72878 110.145 1.72065C110.167 1.70528 110.204 1.67963 110.244 1.65397C110.283 1.6276 110.333 1.58844 110.375 1.55083ZM114.142 3.46292C113.99 3.68598 113.708 3.9409 113.458 4.08062L113.301 4.16642L113.482 4.2571C113.784 4.41153 114.026 4.61987 114.213 4.88951L114.294 5.00961L114.375 4.82331C114.5 4.53654 114.838 4.09779 115.09 3.89433L115.247 3.76932L115.068 3.72521C114.875 3.67618 114.644 3.55118 114.433 3.37714C114.357 3.31585 114.291 3.26438 114.286 3.26438C114.281 3.26684 114.215 3.35508 114.142 3.46292ZM87.8603 11.5199C87.9927 11.439 88.2108 11.2233 88.3113 11.0689C88.3677 10.9831 88.4192 10.912 88.4265 10.912C88.4314 10.912 88.5098 10.9733 88.6005 11.0469C88.7868 11.1964 88.9952 11.3091 89.1717 11.3557C89.198 11.3628 89.2223 11.3707 89.2416 11.3781C89.2692 11.3886 89.2869 11.3979 89.2869 11.4023C89.2844 11.4096 89.2232 11.4537 89.1471 11.5003C88.9633 11.618 88.7501 11.8508 88.6496 12.0469C88.603 12.1376 88.5589 12.2111 88.5515 12.2111C88.5442 12.2111 88.5025 12.1548 88.4608 12.0886C88.3652 11.944 88.1544 11.7724 87.9461 11.667C87.8603 11.6253 87.7917 11.5836 87.7917 11.5763C87.7917 11.5665 87.8211 11.542 87.8603 11.5199Z" fill="white"/>
  <path d="M115.381 3.80902L114.323 3.23646L113.168 4.17834L114.373 5.21442L115.381 3.80902Z" fill="white"/>
  <path d="M111.001 1.82362L110.557 1.25849L109.918 1.79671L110.585 2.38876L111.001 1.82362Z" fill="white"/>
  <path d="M89.3849 11.3367L88.396 10.8187L87.6896 11.5923L88.5372 12.3728L89.3849 11.3367Z" fill="white"/>
</svg>
