<svg xmlns="http://www.w3.org/2000/svg" width="227" height="295" viewBox="0 0 227 295" fill="none">
<path d="M35.6999 2.14547C36.0408 1.7109 35.9648 1.08231 35.5302 0.741485C35.0956 0.400659 34.467 0.476658 34.1262 0.911234L35.6999 2.14547ZM79.8209 166.998L80.0769 166.031L79.8209 166.998ZM121.701 99.9898L121.882 100.973L121.701 99.9898ZM225.463 290.463C225.96 290.223 226.168 289.625 225.928 289.127L222.013 281.024C221.773 280.526 221.175 280.318 220.678 280.558C220.181 280.798 219.972 281.396 220.212 281.894L223.692 289.097L216.489 292.577C215.992 292.817 215.783 293.415 216.023 293.912C216.264 294.41 216.862 294.618 217.359 294.378L225.463 290.463ZM30.0821 6.29082C29.7591 6.73879 29.8604 7.3638 30.3083 7.68682C30.7563 8.00984 31.3813 7.90855 31.7043 7.46058L30.0821 6.29082ZM24.312 18.5769C24.6005 18.1059 24.4526 17.4903 23.9817 17.2018C23.5107 16.9133 22.8951 17.0612 22.6066 17.5321L24.312 18.5769ZM15.9844 29.3064C15.7321 29.7977 15.9258 30.4005 16.4171 30.6528C16.9084 30.9051 17.5112 30.7114 17.7635 30.2201L15.9844 29.3064ZM12.1475 42.3171C12.3592 41.8069 12.1173 41.2218 11.6072 41.0101C11.0971 40.7985 10.5119 41.0404 10.3003 41.5505L12.1475 42.3171ZM5.68887 54.2528C5.52521 54.7802 5.82014 55.3405 6.34762 55.5042C6.8751 55.6678 7.43538 55.3729 7.59904 54.8454L5.68887 54.2528ZM4.33306 67.749C4.43827 67.2069 4.08404 66.6821 3.54186 66.5768C2.99969 66.4716 2.47489 66.8259 2.36968 67.368L4.33306 67.749ZM0.640991 80.8029C0.607793 81.3542 1.02779 81.828 1.57907 81.8612C2.13036 81.8944 2.60418 81.4744 2.63737 80.9231L0.640991 80.8029ZM2.85744 94.1712C2.80338 93.6215 2.31399 93.2198 1.76436 93.2738C1.21472 93.3279 0.812981 93.8173 0.867038 94.3669L2.85744 94.1712ZM3.40861 107.713C3.56231 108.244 4.11693 108.549 4.6474 108.396C5.17787 108.242 5.4833 107.687 5.3296 107.157L3.40861 107.713ZM10.2347 119.404C9.97924 118.914 9.3752 118.725 8.88556 118.98C8.39592 119.236 8.20611 119.84 8.4616 120.329L10.2347 119.404ZM15.9004 131.696C16.2459 132.127 16.8752 132.197 17.3062 131.851C17.7371 131.506 17.8064 130.877 17.461 130.446L15.9004 131.696ZM26.617 139.99C26.2025 139.626 25.5706 139.666 25.2056 140.08C24.8407 140.495 24.8809 141.127 25.2954 141.492L26.617 139.99ZM36.1336 149.681C36.5964 149.982 37.2159 149.851 37.5172 149.389C37.8186 148.926 37.6877 148.306 37.2249 148.005L36.1336 149.681ZM48.7447 154.554C48.25 154.309 47.6499 154.511 47.4042 155.005C47.1585 155.5 47.3603 156.1 47.8549 156.346L48.7447 154.554ZM60.2726 161.778C60.7881 161.976 61.3667 161.719 61.565 161.204C61.7632 160.688 61.506 160.11 60.9906 159.911L60.2726 161.778ZM73.5647 164.193C73.0358 164.034 72.4782 164.334 72.3193 164.863C72.1604 165.392 72.4604 165.949 72.9894 166.108L73.5647 164.193ZM86.9511 169.733C87.4913 169.848 88.0225 169.503 88.1378 168.963C88.2531 168.423 87.9086 167.892 87.3685 167.777L86.9511 169.733ZM102.042 170.076C101.493 170.023 101.004 170.425 100.951 170.975C100.898 171.525 101.3 172.014 101.85 172.067L102.042 170.076ZM116.916 172.484C117.467 172.458 117.894 171.99 117.868 171.438C117.842 170.887 117.374 170.46 116.822 170.486L116.916 172.484ZM131.457 168.513C130.919 168.639 130.584 169.176 130.71 169.714C130.835 170.252 131.372 170.586 131.91 170.461L131.457 168.513ZM146.197 165.407C146.691 165.162 146.894 164.562 146.649 164.067C146.403 163.573 145.803 163.37 145.309 163.615L146.197 165.407ZM157.389 155.366C156.985 155.742 156.961 156.374 157.337 156.779C157.713 157.184 158.345 157.207 158.75 156.831L157.389 155.366ZM168.001 144.727C168.252 144.235 168.057 143.633 167.565 143.381C167.073 143.13 166.471 143.326 166.22 143.818L168.001 144.727ZM170.021 129.903C169.995 130.455 170.422 130.923 170.973 130.949C171.525 130.974 171.993 130.548 172.019 129.996L170.021 129.903ZM168.894 115.002C168.644 114.51 168.042 114.314 167.549 114.565C167.057 114.815 166.861 115.417 167.112 115.91L168.894 115.002ZM157.475 105.415C157.94 105.713 158.558 105.576 158.856 105.111C159.153 104.645 159.017 104.027 158.551 103.73L157.475 105.415ZM144.257 98.4258C143.712 98.333 143.196 98.6991 143.103 99.2435C143.01 99.788 143.376 100.305 143.921 100.397L144.257 98.4258ZM129.218 99.9574C129.768 99.908 130.174 99.4221 130.124 98.872C130.075 98.3219 129.589 97.916 129.039 97.9654L129.218 99.9574ZM114.698 100.598C114.167 100.751 113.86 101.304 114.013 101.835C114.165 102.366 114.719 102.673 115.25 102.521L114.698 100.598ZM102.911 107.793C103.383 107.506 103.532 106.891 103.245 106.419C102.957 105.947 102.342 105.798 101.87 106.086L102.911 107.793ZM91.4266 115.416C91.0941 115.857 91.1822 116.484 91.6232 116.816C92.0642 117.149 92.6912 117.061 93.0237 116.62L91.4266 115.416ZM87.3278 128.567C87.467 128.033 87.1465 127.487 86.6121 127.347C86.0776 127.208 85.5315 127.529 85.3923 128.063L87.3278 128.567ZM84.0094 141.966C84.0304 142.518 84.4948 142.948 85.0467 142.927C85.5986 142.906 86.029 142.442 86.008 141.89L84.0094 141.966ZM87.9319 155.262C87.8034 154.724 87.2637 154.393 86.7266 154.522C86.1895 154.65 85.8583 155.19 85.9869 155.727L87.9319 155.262ZM90.1765 168.92C90.3777 169.434 90.9577 169.688 91.472 169.487C91.9864 169.286 92.2403 168.706 92.0391 168.192L90.1765 168.92ZM97.6817 180.596C97.4283 180.106 96.8251 179.913 96.3344 180.167C95.8436 180.42 95.6513 181.023 95.9046 181.514L97.6817 180.596ZM102.768 193.51C103.061 193.978 103.678 194.119 104.146 193.826C104.614 193.532 104.755 192.915 104.462 192.447L102.768 193.51ZM112.123 203.737C111.798 203.291 111.172 203.194 110.726 203.52C110.28 203.845 110.182 204.471 110.508 204.917L112.123 203.737ZM118.992 215.793C119.345 216.218 119.975 216.276 120.4 215.923C120.825 215.57 120.883 214.939 120.53 214.515L118.992 215.793ZM129.575 224.778C129.199 224.374 128.566 224.353 128.162 224.729C127.758 225.106 127.736 225.739 128.113 226.143L129.575 224.778ZM137.779 235.948C138.177 236.331 138.81 236.319 139.193 235.92C139.576 235.522 139.563 234.889 139.165 234.506L137.779 235.948ZM149.276 243.72C148.858 243.359 148.227 243.405 147.866 243.823C147.505 244.241 147.551 244.872 147.969 245.233L149.276 243.72ZM158.635 253.97C159.072 254.308 159.7 254.229 160.038 253.793C160.377 253.356 160.298 252.728 159.861 252.39L158.635 253.97ZM170.878 260.478C170.424 260.163 169.801 260.276 169.486 260.73C169.171 261.184 169.284 261.807 169.738 262.122L170.878 260.478ZM181.271 269.667C181.741 269.956 182.357 269.809 182.646 269.339C182.936 268.869 182.789 268.253 182.319 267.963L181.271 269.667ZM194.16 274.795C193.674 274.533 193.067 274.715 192.805 275.201C192.543 275.687 192.725 276.293 193.211 276.556L194.16 274.795ZM205.537 282.731C206.038 282.963 206.632 282.745 206.865 282.244C207.097 281.743 206.879 281.149 206.378 280.916L205.537 282.731ZM218.951 286.262C218.436 286.062 217.857 286.318 217.657 286.833C217.458 287.348 217.714 287.928 218.229 288.127L218.951 286.262ZM34.1262 0.911234C32.7814 2.62595 31.43 4.42158 30.0821 6.29082L31.7043 7.46058C33.0367 5.61285 34.372 3.83873 35.6999 2.14547L34.1262 0.911234ZM22.6066 17.5321C20.3099 21.2813 18.0836 25.2194 15.9844 29.3064L17.7635 30.2201C19.8388 26.1797 22.0404 22.2852 24.312 18.5769L22.6066 17.5321ZM10.3003 41.5505C8.58073 45.6945 7.02691 49.9403 5.68887 54.2528L7.59904 54.8454C8.91741 50.5963 10.4498 46.4086 12.1475 42.3171L10.3003 41.5505ZM2.36968 67.368C1.50496 71.8244 0.911252 76.3149 0.640991 80.8029L2.63737 80.9231C2.9019 76.5303 3.48351 72.1272 4.33306 67.749L2.36968 67.368ZM0.867038 94.3669C1.30983 98.8691 2.13881 103.331 3.40861 107.713L5.3296 107.157C4.09614 102.9 3.28901 98.5592 2.85744 94.1712L0.867038 94.3669ZM8.4616 120.329C10.4994 124.235 12.965 128.034 15.9004 131.696L17.461 130.446C14.6065 126.884 12.2122 123.194 10.2347 119.404L8.4616 120.329ZM25.2954 141.492C28.5389 144.347 32.1434 147.083 36.1336 149.681L37.2249 148.005C33.3112 145.457 29.7843 142.779 26.617 139.99L25.2954 141.492ZM47.8549 156.346C51.7148 158.263 55.8494 160.077 60.2726 161.778L60.9906 159.911C56.6222 158.231 52.5451 156.442 48.7447 154.554L47.8549 156.346ZM72.9894 166.108C75.1248 166.75 77.3163 167.369 79.5649 167.964L80.0769 166.031C77.849 165.441 75.6786 164.828 73.5647 164.193L72.9894 166.108ZM79.5649 167.964C82.0777 168.63 84.5398 169.218 86.9511 169.733L87.3685 167.777C84.9897 167.269 82.5592 166.688 80.0769 166.031L79.5649 167.964ZM101.85 172.067C107.171 172.581 112.193 172.704 116.916 172.484L116.822 170.486C112.2 170.702 107.274 170.582 102.042 170.076L101.85 172.067ZM131.91 170.461C137.188 169.232 141.951 167.511 146.197 165.407L145.309 163.615C141.207 165.647 136.591 167.317 131.457 168.513L131.91 170.461ZM158.75 156.831C162.718 153.147 165.804 149.03 168.001 144.727L166.22 143.818C164.133 147.905 161.192 151.835 157.389 155.366L158.75 156.831ZM172.019 129.996C172.264 124.727 171.227 119.585 168.894 115.002L167.112 115.91C169.277 120.163 170.251 124.957 170.021 129.903L172.019 129.996ZM158.551 103.73C154.62 101.219 149.85 99.3795 144.257 98.4258L143.921 100.397C149.278 101.311 153.791 103.063 157.475 105.415L158.551 103.73ZM129.039 97.9654C126.631 98.1815 124.125 98.5255 121.519 99.0064L121.882 100.973C124.43 100.503 126.875 100.168 129.218 99.9574L129.039 97.9654ZM121.519 99.0064C119.124 99.4485 116.851 99.9804 114.698 100.598L115.25 102.521C117.336 101.922 119.546 101.404 121.882 100.973L121.519 99.0064ZM101.87 106.086C97.6014 108.689 94.1336 111.824 91.4266 115.416L93.0237 116.62C95.5699 113.242 98.845 110.273 102.911 107.793L101.87 106.086ZM85.3923 128.063C84.2638 132.397 83.8229 137.059 84.0094 141.966L86.008 141.89C85.8278 137.149 86.2554 132.685 87.3278 128.567L85.3923 128.063ZM85.9869 155.727C87.0135 160.016 88.4194 164.427 90.1765 168.92L92.0391 168.192C90.3117 163.774 88.9348 159.451 87.9319 155.262L85.9869 155.727ZM95.9046 181.514C97.9552 185.485 100.249 189.492 102.768 193.51L104.462 192.447C101.971 188.474 99.7051 184.515 97.6817 180.596L95.9046 181.514ZM110.508 204.917C113.167 208.559 115.999 212.19 118.992 215.793L120.53 214.515C117.563 210.943 114.757 207.345 112.123 203.737L110.508 204.917ZM128.113 226.143C131.207 229.458 134.432 232.732 137.779 235.948L139.165 234.506C135.844 231.315 132.644 228.067 129.575 224.778L128.113 226.143ZM147.969 245.233C151.423 248.218 154.982 251.135 158.635 253.97L159.861 252.39C156.236 249.576 152.704 246.682 149.276 243.72L147.969 245.233ZM169.738 262.122C173.502 264.733 177.349 267.253 181.271 269.667L182.319 267.963C178.429 265.569 174.612 263.07 170.878 260.478L169.738 262.122ZM193.211 276.556C197.257 278.737 201.368 280.8 205.537 282.731L206.378 280.916C202.247 279.002 198.171 276.958 194.16 274.795L193.211 276.556ZM218.229 288.127C220.374 288.957 222.531 289.751 224.699 290.507L225.357 288.618C223.211 287.87 221.075 287.084 218.951 286.262L218.229 288.127Z" fill="white"/>
</svg>
