<svg width="18" height="18" viewBox="0 0 18 18" fill="none" xmlns="http://www.w3.org/2000/svg">
<path d="M8.99998 7.28845L5.34615 10.9423L6.39998 11.9961L8.25 10.1461V14.5961H9.74995V10.1461L11.6 11.9961L12.6538 10.9423L8.99998 7.28845ZM1.99997 4.90383V15.6923C1.99997 15.782 2.02883 15.8557 2.08653 15.9134C2.14423 15.9711 2.21795 16 2.3077 16H15.6923C15.782 16 15.8557 15.9711 15.9134 15.9134C15.9711 15.8557 16 15.782 16 15.6923V4.90383H1.99997ZM2.38463 17.5C1.88591 17.5 1.44712 17.3105 1.06827 16.9317C0.689425 16.5528 0.5 16.114 0.5 15.6153V4.00578C0.5 3.79168 0.5343 3.58751 0.6029 3.39328C0.671483 3.19906 0.774366 3.0199 0.91155 2.8558L2.3154 1.1577C2.4795 0.943601 2.68462 0.780459 2.93077 0.668275C3.17692 0.556092 3.43718 0.5 3.71155 0.5H14.2692C14.5435 0.5 14.8054 0.556092 15.0547 0.668275C15.3041 0.780459 15.5108 0.943601 15.6749 1.1577L17.0884 2.87503C17.2256 3.03913 17.3285 3.21989 17.3971 3.41733C17.4657 3.61476 17.5 3.82053 17.5 4.03463V15.6153C17.5 16.114 17.3105 16.5528 16.9317 16.9317C16.5528 17.3105 16.114 17.5 15.6153 17.5H2.38463ZM2.39035 3.40385H15.6L14.5096 2.10575C14.4775 2.0737 14.4407 2.04806 14.399 2.02883C14.3573 2.00959 14.314 1.99998 14.2692 1.99998H3.72117C3.67629 1.99998 3.63302 2.00959 3.59135 2.02883C3.54968 2.04806 3.51282 2.0737 3.48075 2.10575L2.39035 3.40385Z" fill="#53772F"/>
</svg>
