<svg width="25" height="24" viewBox="0 0 25 24" fill="none" xmlns="http://www.w3.org/2000/svg">
<path d="M16.2731 12.4466L15.1501 11.3236C15.3001 10.4953 15.0639 9.75079 14.4414 9.0899C13.819 8.429 13.0552 8.17355 12.1501 8.32355L11.027 7.2005C11.2527 7.09922 11.4841 7.02326 11.7212 6.97263C11.9584 6.92198 12.218 6.89665 12.5001 6.89665C13.6347 6.89665 14.5978 7.29249 15.3895 8.08415C16.1811 8.87582 16.577 9.83895 16.577 10.9736C16.577 11.2556 16.5517 11.5184 16.501 11.762C16.4504 12.0056 16.3744 12.2338 16.2731 12.4466ZM19.4539 15.5582L18.3501 14.5236C18.9834 14.0402 19.5459 13.5111 20.0376 12.9361C20.5292 12.3611 20.9501 11.7069 21.3001 10.9736C20.4667 9.29022 19.2709 7.95272 17.7126 6.96105C16.1542 5.96939 14.4167 5.47355 12.5001 5.47355C12.0167 5.47355 11.5417 5.50689 11.0751 5.57355C10.6084 5.64022 10.1501 5.74022 9.70007 5.87355L8.53472 4.7082C9.16677 4.45692 9.81228 4.27166 10.4712 4.15243C11.1302 4.0332 11.8065 3.97358 12.5001 3.97358C14.8437 3.97358 16.9571 4.61973 18.8404 5.91203C20.7238 7.20435 22.0975 8.89152 22.9616 10.9736C22.5911 11.8671 22.1125 12.7011 21.526 13.4755C20.9395 14.2498 20.2488 14.944 19.4539 15.5582ZM20.2616 21.3427L16.2155 17.3274C15.7027 17.5171 15.1344 17.6722 14.5107 17.7928C13.8869 17.9133 13.2167 17.9735 12.5001 17.9735C10.1501 17.9735 8.03664 17.3274 6.15972 16.0351C4.28281 14.7428 2.90909 13.0556 2.03857 10.9736C2.40781 10.0902 2.88473 9.26618 3.46935 8.50143C4.05397 7.73669 4.69756 7.07356 5.40012 6.51203L2.63087 3.71203L3.68472 2.6582L21.3154 20.2889L20.2616 21.3427ZM6.45395 7.56583C5.92575 7.98634 5.41197 8.4918 4.9126 9.0822C4.41323 9.67259 4.00906 10.303 3.70007 10.9736C4.53341 12.6569 5.72924 13.9944 7.28757 14.9861C8.84591 15.9777 10.5834 16.4736 12.5001 16.4736C12.9552 16.4736 13.4084 16.4351 13.8597 16.3582C14.311 16.2812 14.6937 16.2018 15.0078 16.1197L13.7424 14.8235C13.5719 14.8927 13.3744 14.9479 13.1501 14.9889C12.9257 15.0299 12.7091 15.0505 12.5001 15.0505C11.3655 15.0505 10.4023 14.6546 9.61067 13.863C8.81901 13.0713 8.42317 12.1082 8.42317 10.9736C8.42317 10.771 8.44369 10.5591 8.48472 10.338C8.52576 10.1168 8.58088 9.91456 8.6501 9.73123L6.45395 7.56583Z" fill="#53772F"/>
</svg>
