<svg width="20" height="10" viewBox="0 0 20 10" fill="none" xmlns="http://www.w3.org/2000/svg">
<path d="M8.80765 9.53779H5.03845C3.78282 9.53779 2.7125 9.09535 1.8275 8.21046C0.9425 7.32558 0.5 6.2554 0.5 4.99991C0.5 3.74443 0.9425 2.67406 1.8275 1.78881C2.7125 0.903562 3.78282 0.460938 5.03845 0.460938H8.80765V1.96089H5.03845C4.1987 1.96089 3.48235 2.25736 2.8894 2.85031C2.29645 3.44326 1.99998 4.15961 1.99998 4.99936C1.99998 5.83911 2.29645 6.55546 2.8894 7.14841C3.48235 7.74136 4.1987 8.03784 5.03845 8.03784H8.80765V9.53779ZM6.25 5.74934V4.24939H13.75V5.74934H6.25ZM11.1923 9.53779V8.03784H14.9615C15.8013 8.03784 16.5176 7.74136 17.1106 7.14841C17.7035 6.55546 18 5.83911 18 4.99936C18 4.15961 17.7035 3.44326 17.1106 2.85031C16.5176 2.25736 15.8013 1.96089 14.9615 1.96089H11.1923V0.460938H14.9615C16.2171 0.460938 17.2875 0.90338 18.1725 1.78826C19.0575 2.67315 19.5 3.74333 19.5 4.99881C19.5 6.2543 19.0575 7.32466 18.1725 8.20991C17.2875 9.09516 16.2171 9.53779 14.9615 9.53779H11.1923Z" fill="#668447"/>
</svg>
