<svg width="20" height="20" viewBox="0 0 20 20" fill="none" xmlns="http://www.w3.org/2000/svg">
<path d="M10.0596 16.7884L12.6884 14.175L10.0596 11.5615L9.22115 12.4L10.45 13.6288C9.82948 13.6391 9.25833 13.5561 8.73653 13.3798C8.21473 13.2035 7.77562 12.9372 7.4192 12.5808C7.06663 12.2282 6.79964 11.8256 6.61823 11.3731C6.43683 10.9205 6.34613 10.4679 6.34613 10.0154C6.34613 9.73202 6.38042 9.44868 6.449 9.16535C6.51758 8.88202 6.61534 8.61023 6.74228 8.34998L5.85383 7.5C5.61536 7.88462 5.43908 8.28808 5.32498 8.7104C5.21088 9.13272 5.15382 9.56258 5.15382 9.99998C5.15382 10.6137 5.27402 11.2194 5.5144 11.817C5.75478 12.4146 6.10863 12.9487 6.57595 13.4192C7.04325 13.8897 7.61056 14.241 8.27788 14.4731C8.94519 14.7051 9.63078 14.8263 10.3346 14.8365L9.22115 15.95L10.0596 16.7884ZM14.1558 12.5C14.3942 12.1153 14.5705 11.7119 14.6846 11.2896C14.7987 10.8672 14.8557 10.4374 14.8557 9.99998C14.8557 9.38723 14.7381 8.77851 14.5029 8.17383C14.2676 7.56914 13.9147 7.03299 13.4442 6.56538C12.9801 6.09486 12.4112 5.74614 11.7375 5.51923C11.0638 5.29229 10.3763 5.17883 9.67495 5.17883L10.7884 4.04998L9.94998 3.21153L7.32115 5.82498L9.94998 8.43843L10.7884 7.59998L9.54418 6.35573C10.1544 6.35573 10.7282 6.44643 11.2654 6.62785C11.8025 6.80927 12.2452 7.07424 12.5932 7.42278C12.9413 7.77133 13.2066 8.17216 13.3894 8.62528C13.5721 9.07838 13.6635 9.53148 13.6635 9.9846C13.6635 10.2679 13.6292 10.5513 13.5606 10.8346C13.492 11.1179 13.3942 11.3897 13.2673 11.65L14.1558 12.5ZM10.0016 19.5C8.68772 19.5 7.45268 19.2506 6.29655 18.752C5.1404 18.2533 4.13472 17.5765 3.2795 16.7217C2.42427 15.8669 1.74721 14.8616 1.24833 13.706C0.749442 12.5504 0.5 11.3156 0.5 10.0017C0.5 8.68772 0.749334 7.45268 1.248 6.29655C1.74667 5.1404 2.42342 4.13472 3.27825 3.2795C4.1331 2.42427 5.13834 1.74721 6.29398 1.24833C7.44959 0.749443 8.68437 0.5 9.9983 0.5C11.3122 0.5 12.5473 0.749334 13.7034 1.248C14.8596 1.74667 15.8652 2.42342 16.7205 3.27825C17.5757 4.1331 18.2527 5.13834 18.7516 6.29398C19.2505 7.44959 19.5 8.68437 19.5 9.9983C19.5 11.3122 19.2506 12.5473 18.752 13.7034C18.2533 14.8596 17.5765 15.8652 16.7217 16.7205C15.8669 17.5757 14.8616 18.2527 13.706 18.7516C12.5504 19.2505 11.3156 19.5 10.0016 19.5ZM9.99998 18C12.2333 18 14.125 17.225 15.675 15.675C17.225 14.125 18 12.2333 18 9.99998C18 7.76664 17.225 5.87498 15.675 4.32498C14.125 2.77498 12.2333 1.99998 9.99998 1.99998C7.76664 1.99998 5.87498 2.77498 4.32498 4.32498C2.77498 5.87498 1.99998 7.76664 1.99998 9.99998C1.99998 12.2333 2.77498 14.125 4.32498 15.675C5.87498 17.225 7.76664 18 9.99998 18Z" fill="#668447"/>
</svg>
