<svg width="25" height="24" viewBox="0 0 25 24" fill="none" xmlns="http://www.w3.org/2000/svg">
<path d="M12.5023 16.0769C13.6354 16.0769 14.5978 15.6803 15.3895 14.8871C16.1811 14.0939 16.577 13.1308 16.577 11.9977C16.577 10.8646 16.1804 9.90224 15.3872 9.11058C14.594 8.31891 13.6309 7.92308 12.4978 7.92308C11.3647 7.92308 10.4023 8.31966 9.61067 9.11282C8.81901 9.90601 8.42317 10.8692 8.42317 12.0023C8.42317 13.1353 8.81976 14.0977 9.61293 14.8894C10.4061 15.681 11.3693 16.0769 12.5023 16.0769ZM12.5001 14.7C11.7501 14.7 11.1126 14.4375 10.5876 13.9125C10.0626 13.3875 9.80007 12.75 9.80007 12C9.80007 11.25 10.0626 10.6125 10.5876 10.0875C11.1126 9.56248 11.7501 9.29998 12.5001 9.29998C13.2501 9.29998 13.8876 9.56248 14.4126 10.0875C14.9376 10.6125 15.2001 11.25 15.2001 12C15.2001 12.75 14.9376 13.3875 14.4126 13.9125C13.8876 14.4375 13.2501 14.7 12.5001 14.7ZM12.5014 19C10.2018 19 8.10651 18.3657 6.21547 17.0971C4.32446 15.8285 2.93216 14.1295 2.03857 12C2.93216 9.87049 4.32401 8.17146 6.21412 6.90288C8.10422 5.63429 10.1991 5 12.4987 5C14.7983 5 16.8936 5.63429 18.7847 6.90288C20.6757 8.17146 22.068 9.87049 22.9616 12C22.068 14.1295 20.6761 15.8285 18.786 17.0971C16.8959 18.3657 14.8011 19 12.5014 19ZM12.5001 17.5C14.3834 17.5 16.1126 17.0041 17.6876 16.0125C19.2626 15.0208 20.4667 13.6833 21.3001 12C20.4667 10.3166 19.2626 8.97914 17.6876 7.98748C16.1126 6.99581 14.3834 6.49998 12.5001 6.49998C10.6167 6.49998 8.88757 6.99581 7.31257 7.98748C5.73757 8.97914 4.53341 10.3166 3.70007 12C4.53341 13.6833 5.73757 15.0208 7.31257 16.0125C8.88757 17.0041 10.6167 17.5 12.5001 17.5Z" fill="#53772F"/>
</svg>
