<svg width="48" height="48" viewBox="0 0 48 48" fill="none" xmlns="http://www.w3.org/2000/svg">
<rect width="48" height="48" rx="24" fill="#53772F" fill-opacity="0.2"/>
<path d="M17.3077 32.5C16.8026 32.5 16.375 32.325 16.025 31.975C15.675 31.625 15.5 31.1974 15.5 30.6923V17.3077C15.5 16.8026 15.675 16.375 16.025 16.025C16.375 15.675 16.8026 15.5 17.3077 15.5H24.0096V17H17.3077C17.2308 17 17.1602 17.032 17.0961 17.0961C17.032 17.1603 17 17.2308 17 17.3077V30.6923C17 30.7692 17.032 30.8397 17.0961 30.9038C17.1602 30.9679 17.2308 31 17.3077 31H24.0096V32.5H17.3077ZM28.2308 28.2692L27.1923 27.1846L29.6269 24.75H21.0961V23.25H29.6269L27.1923 20.8154L28.2308 19.7308L32.5 24L28.2308 28.2692Z" fill="white"/>
</svg>
