<svg width="16" height="20" viewBox="0 0 16 20" fill="none" xmlns="http://www.w3.org/2000/svg">
<path d="M7.99997 10.7408C7.08716 10.7408 6.31729 10.4273 5.69037 9.8004C5.06346 9.17348 4.75 8.40361 4.75 7.4908C4.75 6.57798 5.06346 5.80812 5.69037 5.1812C6.31729 4.55428 7.08716 4.24082 7.99997 4.24082C8.91279 4.24082 9.68266 4.55428 10.3096 5.1812C10.9365 5.80812 11.25 6.57798 11.25 7.4908C11.25 8.40361 10.9365 9.17348 10.3096 9.8004C9.68266 10.4273 8.91279 10.7408 7.99997 10.7408ZM7.99997 9.24082C8.49741 9.24082 8.91344 9.07351 9.24808 8.7389C9.58269 8.40426 9.75 7.98823 9.75 7.4908C9.75 6.99336 9.58269 6.57733 9.24808 6.2427C8.91344 5.90808 8.49741 5.74077 7.99997 5.74077C7.50254 5.74077 7.08651 5.90808 6.75187 6.2427C6.41726 6.57733 6.24995 6.99336 6.24995 7.4908C6.24995 7.98823 6.41726 8.40426 6.75187 8.7389C7.08651 9.07351 7.50254 9.24082 7.99997 9.24082ZM7.99997 19.4715C5.83716 18.8818 4.04646 17.6087 2.62787 15.6523C1.20929 13.6959 0.5 11.5087 0.5 9.0908V3.33697L7.99997 0.529297L15.5 3.33697V9.0908C15.5 11.5087 14.7907 13.6959 13.3721 15.6523C11.9535 17.6087 10.1628 18.8818 7.99997 19.4715ZM7.99997 2.12542L1.99997 4.3658V9.0908C1.99997 10.0421 2.13619 10.962 2.40863 11.8504C2.68108 12.7389 3.05961 13.5677 3.54422 14.337C4.21857 13.9934 4.92466 13.7248 5.66248 13.5312C6.40029 13.3376 7.17946 13.2408 7.99997 13.2408C8.82049 13.2408 9.59966 13.3376 10.3375 13.5312C11.0753 13.7248 11.7814 13.9934 12.4557 14.337C12.9403 13.5677 13.3189 12.7389 13.5913 11.8504C13.8638 10.962 14 10.0421 14 9.0908V4.3658L7.99997 2.12542ZM7.99997 14.7408C7.35509 14.7408 6.7349 14.8106 6.1394 14.9504C5.54388 15.0901 4.98137 15.2863 4.45187 15.5388C4.94804 16.0901 5.49388 16.5668 6.0894 16.9687C6.6849 17.3706 7.32176 17.678 7.99997 17.8908C8.67819 17.678 9.31345 17.3706 9.90575 16.9687C10.4981 16.5668 11.0423 16.0901 11.5385 15.5388C11.009 15.2863 10.4481 15.0901 9.85575 14.9504C9.26345 14.8106 8.64486 14.7408 7.99997 14.7408Z" fill="#2F302E"/>
</svg>
